<?xml version="1.0" standalone="no"?>
<!DOCTYPE svg PUBLIC "-//W3C//DTD SVG 20010904//EN"
 "http://www.w3.org/TR/2001/REC-SVG-20010904/DTD/svg10.dtd">
<svg version="1.0" xmlns="http://www.w3.org/2000/svg"
 width="603.000000pt" height="414.000000pt" viewBox="0 0 603.000000 414.000000"
 preserveAspectRatio="xMidYMid meet">

<g transform="translate(0.000000,414.000000) scale(0.100000,-0.100000)"
fill="#000000" stroke="none">
<path d="M3642 3272 c-10 -10 -28 -58 -41 -107 -30 -120 -28 -115 -47 -115
-26 0 -257 -116 -278 -139 -25 -28 -10 -26 39 4 76 46 130 72 163 78 21 4 31
3 27 -3 -3 -6 -12 -10 -19 -10 -17 0 -216 -98 -237 -117 -9 -7 -22 -13 -28
-11 -25 6 -131 -285 -111 -306 4 -4 1 -28 -7 -52 -13 -39 -18 -44 -37 -38 -23
8 -281 6 -308 -2 -13 -4 -18 4 -23 43 -16 120 -102 356 -131 359 -23 2 -45 18
-40 30 7 18 -69 64 -199 120 -60 26 -111 49 -113 50 -2 1 -12 39 -23 85 -25
104 -40 129 -79 129 -51 0 -63 -22 -75 -134 -3 -33 -7 -61 -8 -62 -1 -1 -54 5
-117 12 l-115 14 -55 -26 c-176 -82 -240 -118 -240 -134 0 -5 8 -10 18 -10 9
0 34 -16 55 -35 27 -25 48 -35 70 -35 22 0 42 -10 64 -31 18 -16 33 -34 33
-38 0 -5 10 -11 21 -14 17 -5 20 -10 13 -24 -10 -23 -18 -169 -9 -190 4 -12 9
-13 17 -5 6 6 10 46 9 97 -2 96 6 115 48 115 44 0 114 28 154 61 32 27 37 36
37 74 0 43 0 43 43 51 23 4 61 7 84 6 60 -2 303 -108 330 -145 11 -14 67 -147
82 -196 19 -60 15 -70 -41 -97 -29 -14 -71 -36 -93 -49 -23 -14 -64 -27 -100
-30 -52 -6 -71 -14 -124 -53 -57 -42 -261 -271 -319 -359 -13 -18 -29 -36 -37
-39 -8 -3 -36 -45 -62 -92 -26 -48 -68 -106 -91 -129 l-44 -43 1 -389 c1 -213
6 -415 11 -447 15 -88 35 -104 146 -110 127 -7 137 0 145 99 3 54 10 82 22 95
16 16 56 17 485 18 257 1 575 5 707 8 164 4 273 3 345 -6 58 -7 140 -11 183
-10 71 2 80 0 102 -22 19 -19 25 -36 25 -68 0 -25 8 -56 19 -74 18 -29 25 -32
88 -39 89 -9 143 6 178 46 l26 31 -2 329 c0 180 2 333 6 339 4 6 4 52 0 102
l-7 90 -56 58 c-30 32 -74 89 -96 127 -23 37 -45 67 -50 65 -4 -2 -23 18 -41
45 -73 107 -349 388 -411 418 -18 8 -54 15 -81 15 -30 0 -61 8 -83 20 -19 11
-63 34 -97 51 -35 17 -63 36 -63 43 0 8 15 51 34 97 18 46 39 101 46 123 12
37 18 41 167 112 128 61 163 74 204 74 63 0 121 -23 113 -45 -3 -8 -3 -30 0
-48 6 -30 14 -37 79 -65 39 -18 89 -32 110 -32 37 0 37 -1 37 -40 0 -55 19
-137 35 -150 24 -20 26 7 5 89 l-20 79 60 61 c51 52 65 61 95 61 19 0 35 5 35
10 0 6 6 10 13 10 8 0 22 9 32 20 9 10 22 18 27 17 6 -1 12 3 15 9 4 13 -110
84 -178 110 -24 9 -52 24 -62 33 -21 17 -51 18 -193 7 l-101 -9 -6 84 c-4 45
-10 86 -15 91 -5 5 -23 13 -41 18 -26 7 -36 5 -49 -8z m-993 -778 c6 -15 10
-28 8 -31 -3 -2 -33 -3 -68 -1 l-64 3 50 27 c28 15 53 27 56 28 3 0 11 -12 18
-26z m601 6 c59 -30 58 -40 -2 -33 -63 7 -62 6 -53 32 8 26 7 26 55 1z m298
-125 c34 -18 352 -336 352 -352 0 -7 -27 -14 -67 -18 -86 -9 -903 -12 -1430
-5 -350 4 -403 7 -403 20 0 15 70 92 238 263 74 75 91 87 121 88 20 1 243 5
496 8 253 4 506 8 563 9 75 1 110 -2 130 -13z m-1443 -800 l0 -80 -122 -3
-123 -3 0 86 0 86 123 -3 122 -3 0 -80z m1675 5 l0 -80 -120 0 -120 0 0 70 c0
49 4 70 13 70 8 0 7 4 -3 10 -10 7 25 10 108 10 l122 0 0 -80z m280 0 l0 -80
-125 0 -125 0 0 80 0 80 125 0 125 0 0 -80z m-1662 -12 l-3 -83 -120 0 -120 0
-3 83 -3 82 126 0 126 0 -3 -82z m657 2 c3 -6 -4 -10 -17 -11 -22 0 -22 -1 -3
-9 18 -8 17 -9 -7 -9 -31 -1 -39 25 -10 32 28 8 31 7 37 -3z m-165 -15 c0 -10
-10 -15 -32 -14 -23 1 -27 3 -13 7 l20 5 -20 8 c-16 6 -14 8 13 8 22 1 32 -4
32 -14z m90 1 c0 -9 -12 -13 -40 -12 -54 1 -54 26 0 26 27 0 40 -4 40 -14z
m1130 -95 c0 -5 -12 -11 -27 -14 -39 -8 -1424 -32 -1833 -31 -318 0 -409 7
-417 30 -2 6 330 10 978 11 540 1 984 4 987 7 9 10 312 7 312 -3z m-2373 -93
c-3 -8 -6 -5 -6 6 -1 11 2 17 5 13 3 -3 4 -12 1 -19z m2423 -20 c0 -7 -5 -20
-10 -28 -8 -12 -10 -9 -10 13 0 15 5 27 10 27 6 0 10 -6 10 -12z m-1015 -98
l0 -85 -205 0 -205 0 -3 65 c-6 117 -23 108 210 106 l203 -1 0 -85z m-1382 50
c3 -11 12 -20 21 -20 22 0 20 -17 -4 -30 -17 -9 -22 -7 -30 15 -6 15 -10 33
-10 41 0 21 17 17 23 -6z m2375 -27 c-2 -12 -11 -17 -23 -14 -11 2 -49 6 -85
9 l-65 6 70 6 c39 4 78 7 88 8 13 1 17 -3 15 -15z m-200 0 c-10 -2 -26 -2 -35
0 -10 3 -2 5 17 5 19 0 27 -2 18 -5z m-1578 -13 c70 -5 -2 -6 -185 -3 -165 2
-302 6 -304 9 -7 7 363 2 489 -6z m1413 3 c-51 -2 -135 -2 -185 0 -51 1 -10 3
92 3 102 0 143 -2 93 -3z"/>
<path d="M2770 1248 l0 -40 63 4 c34 2 68 8 75 12 7 4 12 3 12 -2 0 -5 45 -10
100 -10 l100 -1 0 39 0 38 -175 0 -175 0 0 -40z"/>
</g>
</svg>
